<svg version="1.1" id="Layer_1" xmlns="http://www.w3.org/2000/svg" xmlns:xlink="http://www.w3.org/1999/xlink" x="0px" y="0px"
	 width="100%" viewBox="0 0 540 540" enable-background="new 0 0 540 540" xml:space="preserve">
<path fill="#000000" opacity="1.000000" stroke="none" 
	d="
M308.000000,541.000000 
	C205.356964,541.000000 103.213936,541.000000 1.035451,541.000000 
	C1.035451,361.065277 1.035451,181.130554 1.035451,1.097909 
	C180.893036,1.097909 360.786163,1.097909 540.839600,1.097909 
	C540.839600,180.999878 540.839600,360.999939 540.839600,541.000000 
	C463.463837,541.000000 385.981903,541.000000 308.000000,541.000000 
M166.806931,223.687897 
	C164.592667,231.452255 162.378403,239.216614 160.010864,247.752274 
	C158.397858,253.502869 156.784851,259.253479 155.013901,265.771973 
	C153.641602,270.833710 152.269302,275.895477 150.251373,281.360046 
	C148.558670,287.573700 146.865967,293.787323 144.833984,300.683105 
	C140.612152,312.785553 136.390335,324.887970 132.020355,337.747406 
	C127.034874,349.048187 122.151482,360.395569 117.023582,371.631348 
	C114.192314,377.834991 110.950928,383.851471 107.267334,390.239471 
	C98.843155,403.376923 89.202370,415.478088 78.174889,426.594543 
	C73.017471,431.793549 67.977692,437.731628 68.029800,446.762756 
	C69.827065,453.417786 74.267578,456.664459 81.403839,457.034485 
	C92.439674,457.606720 101.566742,453.074799 110.285507,446.984314 
	C126.046463,435.974487 140.446320,423.239075 151.425003,407.614868 
	C165.697784,387.302734 178.420273,365.891815 191.582092,344.811493 
	C201.352142,329.163452 210.328217,313.012512 225.181641,301.241577 
	C236.927185,291.933563 249.980850,286.438263 265.027557,286.023560 
	C271.017273,285.858459 277.012512,285.892548 283.719574,286.197876 
	C301.328308,289.348480 315.669525,298.270477 327.091675,311.719391 
	C341.156494,328.279907 351.075470,347.580627 362.074829,366.160767 
	C366.104401,372.967529 370.646088,379.471100 375.006195,386.824646 
	C388.492188,408.232086 405.013641,426.906952 424.983704,442.502197 
	C435.150513,450.441803 445.529785,457.332153 459.476685,456.115814 
	C468.827942,455.300232 474.100464,448.647430 470.943024,439.862823 
	C469.701996,436.410126 467.562256,433.280426 465.790710,429.335938 
	C456.138092,417.890350 446.485474,406.444763 436.767090,394.302368 
	C429.790375,380.869049 422.813660,367.435730 415.753998,353.279907 
	C415.177795,352.129669 414.480927,351.023346 414.043762,349.822479 
	C408.724335,335.210114 403.443115,320.583862 398.043243,305.172089 
	C394.420349,293.105530 390.797455,281.038971 387.047089,268.173615 
	C385.987305,264.453400 384.927521,260.733185 383.984619,256.227386 
	C383.667023,255.156326 383.352020,254.084503 383.031403,253.014359 
	C380.641937,245.039444 378.251343,237.064880 375.995941,228.281921 
	C374.281403,222.509323 372.566895,216.736725 370.948425,210.198013 
	C367.244843,199.116806 363.541260,188.035599 359.943817,176.202896 
	C358.002899,171.459442 356.062012,166.715988 353.989319,161.219330 
	C350.429138,153.388596 346.978577,145.505707 343.285065,137.738373 
	C336.437897,123.339111 326.858765,110.884438 314.844543,100.519173 
	C307.990417,94.605782 300.131927,89.936859 290.273132,87.757156 
	C285.520538,86.885361 280.767944,86.013565 275.083801,85.022064 
	C262.411255,84.216995 250.364777,86.597725 238.259781,92.235825 
	C237.190552,92.965630 236.145874,93.734787 235.048355,94.419228 
	C222.723648,102.105042 212.889633,112.168076 205.245529,125.225220 
	C199.214859,137.466125 193.184189,149.707016 186.832397,162.622650 
	C182.862854,174.045197 178.893311,185.467743 174.277115,197.306213 
	C171.904404,205.872467 169.531677,214.438705 166.806931,223.687897 
z"/>
<path fill="#3087FA" opacity="1.000000" stroke="none" 
	d="
M283.005188,285.835968 
	C277.012512,285.892548 271.017273,285.858459 265.027557,286.023560 
	C249.980850,286.438263 236.927185,291.933563 225.181641,301.241577 
	C210.328217,313.012512 201.352142,329.163452 191.582092,344.811493 
	C178.420273,365.891815 165.697784,387.302734 151.425003,407.614868 
	C140.446320,423.239075 126.046463,435.974487 110.285507,446.984314 
	C101.566742,453.074799 92.439674,457.606720 81.403839,457.034485 
	C74.267578,456.664459 69.827065,453.417786 68.431786,446.303284 
	C77.428902,439.981445 86.605690,434.802399 94.482887,428.096680 
	C106.314934,418.024292 118.560593,407.952087 128.251694,395.957855 
	C145.127777,375.071106 160.207352,352.731354 175.988419,330.963257 
	C177.825165,328.429688 179.335358,325.659363 181.279480,322.820984 
	C187.179459,316.124146 192.406952,309.211945 198.498215,303.170563 
	C210.018753,291.744354 221.498901,280.167023 233.998474,269.869537 
	C246.259155,259.768829 260.068848,251.963730 277.367859,253.028305 
	C281.747070,254.325958 284.457245,256.419373 283.304016,261.274139 
	C283.103088,262.120056 283.378510,263.365173 283.913513,264.052734 
	C287.032379,268.061035 286.191406,272.432892 285.256775,276.801086 
	C284.607697,279.834412 283.762665,282.825806 283.005188,285.835968 
z"/>
<path fill="#3888FE" opacity="1.000000" stroke="none" 
	d="
M283.362366,286.016907 
	C283.762665,282.825806 284.607697,279.834412 285.256775,276.801086 
	C286.191406,272.432892 287.032379,268.061035 283.913513,264.052734 
	C283.378510,263.365173 283.103088,262.120056 283.304016,261.274139 
	C284.457245,256.419373 281.747070,254.325958 277.366760,252.574982 
	C277.003906,249.054199 277.003906,246.014450 277.003906,243.118500 
	C282.919403,243.450027 287.939423,243.731369 293.270630,244.161041 
	C298.385193,247.885529 303.188599,251.461670 308.075775,255.374298 
	C309.478485,257.603271 310.900513,259.433167 312.095306,261.401031 
	C314.725830,265.733643 318.959930,269.955353 319.442505,274.547729 
	C320.412048,283.774811 325.260529,290.664734 330.155426,297.640411 
	C335.850281,305.756042 341.989502,313.579254 348.250885,321.273041 
	C356.101196,330.919250 364.080658,340.477295 372.410278,349.707031 
	C375.223846,352.824646 379.368286,354.706665 382.741730,357.360291 
	C391.161713,363.983582 399.321716,370.949402 407.911285,377.340698 
	C413.588837,381.565308 419.786316,385.103394 425.834106,388.813416 
	C429.416901,391.011383 433.161163,392.946106 436.832825,394.999176 
	C446.485474,406.444763 456.138092,417.890350 465.395447,429.668732 
	C461.538025,429.069824 458.072906,427.345581 454.614166,427.358185 
	C445.042084,427.393066 439.221924,417.991730 429.796570,418.018799 
	C429.412201,418.019897 429.045502,417.400055 428.637939,417.116455 
	C423.261536,413.375549 418.994812,407.414764 411.080353,408.766144 
	C409.927002,408.963104 408.338379,407.707947 407.224152,406.792511 
	C405.317688,405.226196 403.650391,403.372192 401.841431,401.683105 
	C395.950867,396.182831 389.752045,390.976044 384.230316,385.128967 
	C379.725067,380.358246 378.229889,380.204010 374.954193,386.112976 
	C370.646088,379.471100 366.104401,372.967529 362.074829,366.160767 
	C351.075470,347.580627 341.156494,328.279907 327.091675,311.719391 
	C315.669525,298.270477 301.328308,289.348480 283.362366,286.016907 
z"/>
<path fill="#418AFD" opacity="1.000000" stroke="none" 
	d="
M436.799957,394.650757 
	C433.161163,392.946106 429.416901,391.011383 425.834106,388.813416 
	C419.786316,385.103394 413.588837,381.565308 407.911285,377.340698 
	C399.321716,370.949402 391.161713,363.983582 382.741730,357.360291 
	C379.368286,354.706665 375.223846,352.824646 372.410278,349.707031 
	C364.080658,340.477295 356.101196,330.919250 348.250885,321.273041 
	C341.989502,313.579254 335.850281,305.756042 330.155426,297.640411 
	C325.260529,290.664734 320.412048,283.774811 319.442505,274.547729 
	C318.959930,269.955353 314.725830,265.733643 312.095306,261.401031 
	C310.900513,259.433167 309.478485,257.603271 308.414795,255.447571 
	C312.570190,257.360779 316.675995,259.241119 320.326447,261.776917 
	C327.348907,266.655182 334.113525,271.904572 341.058655,277.346252 
	C341.926819,279.138153 342.529572,280.737885 343.546661,282.004974 
	C351.220703,291.565216 359.077545,300.980072 366.678253,310.597565 
	C374.525604,320.527130 382.862762,329.920013 393.047729,337.563507 
	C396.344421,340.037659 399.178741,343.139648 402.528076,345.528992 
	C406.803436,348.579010 411.386475,351.197784 415.836914,354.002411 
	C422.813660,367.435730 429.790375,380.869049 436.799957,394.650757 
z"/>
<path fill="#338FE4" opacity="1.000000" stroke="none" 
	d="
M107.894424,389.952301 
	C110.950928,383.851471 114.192314,377.834991 117.023582,371.631348 
	C122.151482,360.395569 127.034874,349.048187 132.444077,337.338440 
	C134.094559,336.163757 135.581436,335.630310 136.506149,334.594818 
	C142.807373,327.538757 149.157303,320.514160 155.157379,313.205139 
	C159.772217,307.583588 164.041946,301.660919 168.202484,295.689178 
	C172.436813,289.611542 175.407898,282.346252 180.582230,277.289429 
	C195.417343,262.791138 210.542374,248.476791 226.620972,235.403030 
	C237.473526,226.578659 248.297440,215.299805 265.021545,220.392273 
	C265.376953,222.170151 265.699463,223.587219 265.713043,225.158905 
	C264.257751,226.442307 262.705048,227.371948 262.037018,228.735123 
	C259.459198,233.995285 256.165039,238.229980 250.205078,240.015732 
	C247.876862,240.713333 245.743195,242.224167 243.673294,243.594727 
	C222.527878,257.596008 204.103119,274.721100 187.214401,293.509186 
	C181.717865,299.623901 177.050034,306.483521 171.720444,313.179688 
	C169.602844,315.270416 167.567017,317.029938 165.964340,319.121368 
	C150.801453,338.908691 135.910019,358.908966 120.448868,378.459137 
	C117.013237,382.803406 114.321480,388.610077 107.894424,389.952301 
z"/>
<path fill="#2E8AF1" opacity="1.000000" stroke="none" 
	d="
M107.580872,390.095886 
	C114.321480,388.610077 117.013237,382.803406 120.448868,378.459137 
	C135.910019,358.908966 150.801453,338.908691 165.964340,319.121368 
	C167.567017,317.029938 169.602844,315.270416 171.912750,313.473328 
	C175.751709,315.889374 179.585312,317.774200 180.175949,322.514191 
	C180.199951,322.706848 180.712189,322.838623 180.996948,322.998779 
	C179.335358,325.659363 177.825165,328.429688 175.988419,330.963257 
	C160.207352,352.731354 145.127777,375.071106 128.251694,395.957855 
	C118.560593,407.952087 106.314934,418.024292 94.482887,428.096680 
	C86.605690,434.802399 77.428902,439.981445 68.500038,445.924286 
	C67.977692,437.731628 73.017471,431.793549 78.174889,426.594543 
	C89.202370,415.478088 98.843155,403.376923 107.580872,390.095886 
z"/>
<path fill="#6382E2" opacity="1.000000" stroke="none" 
	d="
M387.174561,268.972412 
	C390.797455,281.038971 394.420349,293.105530 397.722931,305.544739 
	C395.897217,305.270111 394.262543,304.822205 392.907288,303.943390 
	C383.854919,298.073273 374.882660,292.079651 365.829559,286.210724 
	C364.354797,285.254669 362.608124,284.718201 360.911194,283.653778 
	C354.696899,274.053192 346.665070,266.761536 337.657776,260.325714 
	C330.278687,255.053268 323.071686,249.478790 316.261169,243.499634 
	C313.233124,240.841248 311.450867,236.795624 308.960785,233.486771 
	C300.955231,222.848831 288.309357,220.164383 276.907471,214.757904 
	C275.456848,212.997101 274.196411,211.505112 272.973114,209.654907 
	C274.059631,208.470551 275.238617,206.815369 276.136993,206.955780 
	C281.127106,207.735565 286.049072,208.951416 291.279419,210.191864 
	C298.882904,214.843719 306.130371,219.443726 313.542877,223.760330 
	C319.258881,227.088959 325.876434,229.232025 330.846863,233.391495 
	C337.911530,239.303497 343.723206,246.691681 350.284180,253.234558 
	C354.137939,257.077728 358.053070,260.866364 364.586395,259.144592 
	C366.756317,258.572723 369.680817,259.662598 371.903442,260.733551 
	C377.108612,263.241577 382.097870,266.197693 387.174561,268.972412 
z"/>
<path fill="#3387FF" opacity="1.000000" stroke="none" 
	d="
M374.980194,386.468811 
	C378.229889,380.204010 379.725067,380.358246 384.230316,385.128967 
	C389.752045,390.976044 395.950867,396.182831 401.841431,401.683105 
	C403.650391,403.372192 405.317688,405.226196 407.224152,406.792511 
	C408.338379,407.707947 409.927002,408.963104 411.080353,408.766144 
	C418.994812,407.414764 423.261536,413.375549 428.637939,417.116455 
	C429.045502,417.400055 429.412201,418.019897 429.796570,418.018799 
	C439.221924,417.991730 445.042084,427.393066 454.614166,427.358185 
	C458.072906,427.345581 461.538025,429.069824 465.416016,430.002563 
	C467.562256,433.280426 469.701996,436.410126 470.943024,439.862823 
	C474.100464,448.647430 468.827942,455.300232 459.476685,456.115814 
	C445.529785,457.332153 435.150513,450.441803 424.983704,442.502197 
	C405.013641,426.906952 388.492188,408.232086 374.980194,386.468811 
z"/>
<path fill="#DC694A" opacity="1.000000" stroke="none" 
	d="
M276.015350,85.141769 
	C280.767944,86.013565 285.520538,86.885361 290.621460,88.377029 
	C292.336395,93.826935 293.294128,98.825066 295.190582,103.437202 
	C296.905579,107.608101 299.665253,111.346321 301.922821,115.299011 
	C302.657806,116.585846 302.919891,118.398033 303.980377,119.203362 
	C312.622589,125.766151 318.386108,134.848984 325.476013,142.687698 
	C332.970459,150.973679 344.406738,155.694412 354.121124,161.972519 
	C356.062012,166.715988 358.002899,171.459442 359.555481,176.506104 
	C353.038208,172.844955 347.153748,168.416489 340.721313,165.028244 
	C331.737152,160.295898 322.317871,156.394867 313.140167,152.021851 
	C310.006927,150.528931 307.040771,148.685242 303.818420,146.721375 
	C299.188049,139.611359 291.826599,137.006760 285.048645,133.510345 
	C283.368591,132.643677 281.878632,131.287491 280.526215,129.931915 
	C277.647614,127.046585 274.916595,124.014008 272.114563,120.668137 
	C273.170135,118.784889 274.326050,117.329308 275.275909,115.749779 
	C276.142242,114.309143 277.462402,112.712685 277.415100,111.221985 
	C277.138916,102.522537 276.519135,93.833992 276.015350,85.141769 
z"/>
<path fill="#8AB264" opacity="1.000000" stroke="none" 
	d="
M174.923767,196.890289 
	C178.893311,185.467743 182.862854,174.045197 187.335281,162.214981 
	C195.261566,158.450302 202.741898,155.209595 210.056259,151.629761 
	C211.383286,150.980270 211.961731,148.887894 213.008316,147.558075 
	C214.506653,145.654282 215.790497,143.312256 217.748886,142.095978 
	C221.836197,139.557510 226.219772,140.794769 230.756332,141.575653 
	C236.010986,142.480148 241.516617,141.926758 247.384125,141.991577 
	C250.638184,141.997375 253.426376,141.919250 256.203613,142.059021 
	C261.825256,142.341919 264.072784,144.874557 264.531952,150.437225 
	C264.661896,152.011520 266.067902,153.480499 266.657959,155.242447 
	C264.816254,156.177460 263.013489,157.728043 261.625427,157.418533 
	C252.618347,155.410263 244.389313,158.850113 235.907303,160.556976 
	C232.359589,161.270874 230.467087,163.423477 229.602966,166.971588 
	C213.298462,171.648209 197.718048,176.883682 185.395279,188.840225 
	C182.256317,191.885880 178.432785,194.225998 174.923767,196.890289 
z"/>
<path fill="#8B73B1" opacity="1.000000" stroke="none" 
	d="
M375.861115,229.090210 
	C378.251343,237.064880 380.641937,245.039444 383.031403,253.014359 
	C383.352020,254.084503 383.667023,255.156326 383.585754,256.532227 
	C375.342896,251.604050 367.314453,246.624176 359.699982,241.076096 
	C349.393677,233.566666 339.546539,225.426590 329.230865,217.930740 
	C322.250885,212.858795 314.958923,208.166351 307.523560,203.784271 
	C299.262360,198.915451 290.679749,194.591965 282.102478,189.705170 
	C280.974213,186.889938 279.980499,184.400604 279.400879,181.930405 
	C281.336456,181.604126 284.009918,181.563599 284.194916,180.864517 
	C285.530060,175.819229 289.119324,178.080002 292.263489,178.304565 
	C298.568146,181.964127 304.767853,185.174789 310.651825,188.886093 
	C323.282410,196.852829 335.642242,205.251236 348.321136,213.138229 
	C357.324768,218.739029 366.668945,223.792465 375.861115,229.090210 
z"/>
<path fill="#A46E89" opacity="1.000000" stroke="none" 
	d="
M375.928528,228.686066 
	C366.668945,223.792465 357.324768,218.739029 348.321136,213.138229 
	C335.642242,205.251236 323.282410,196.852829 310.651825,188.886093 
	C304.767853,185.174789 298.568146,181.964127 292.181152,177.956970 
	C290.334961,175.243988 289.273285,172.355881 287.215576,171.100983 
	C281.719330,167.749100 280.729919,161.472565 277.332764,156.789490 
	C280.276733,156.471893 283.298065,155.515610 285.551910,156.436905 
	C294.624084,160.145370 304.858521,161.097305 312.731628,167.752457 
	C313.750427,168.613647 315.530334,168.574478 317.038086,169.289337 
	C318.213287,171.052673 319.075928,172.769043 320.439026,173.860245 
	C332.930695,183.859818 345.407074,193.884705 358.124023,203.592911 
	C361.989655,206.543976 366.589050,208.533951 370.852386,210.964111 
	C372.566895,216.736725 374.281403,222.509323 375.928528,228.686066 
z"/>
<path fill="#3595D4" opacity="1.000000" stroke="none" 
	d="
M272.936005,210.013123 
	C274.196411,211.505112 275.456848,212.997101 276.591492,214.949036 
	C272.639984,216.949799 268.814301,218.490616 264.988617,220.031433 
	C248.297440,215.299805 237.473526,226.578659 226.620972,235.403030 
	C210.542374,248.476791 195.417343,262.791138 180.582230,277.289429 
	C175.407898,282.346252 172.436813,289.611542 168.202484,295.689178 
	C164.041946,301.660919 159.772217,307.583588 155.157379,313.205139 
	C149.157303,320.514160 142.807373,327.538757 136.506149,334.594818 
	C135.581436,335.630310 134.094559,336.163757 132.518158,336.959961 
	C136.390335,324.887970 140.612152,312.785553 145.325165,300.252991 
	C146.880585,299.045959 148.067017,298.391907 148.990463,297.473419 
	C159.929123,286.593536 170.569580,275.398621 181.806839,264.838135 
	C194.511017,252.899078 207.433548,241.150162 220.825806,229.996567 
	C235.802307,217.523544 252.217590,207.924744 272.936005,210.013123 
z"/>
<path fill="#737BCC" opacity="1.000000" stroke="none" 
	d="
M282.237061,190.031052 
	C290.679749,194.591965 299.262360,198.915451 307.523560,203.784271 
	C314.958923,208.166351 322.250885,212.858795 329.230865,217.930740 
	C339.546539,225.426590 349.393677,233.566666 359.699982,241.076096 
	C367.314453,246.624176 375.342896,251.604050 383.527344,256.925018 
	C384.927521,260.733185 385.987305,264.453400 387.110840,268.572998 
	C382.097870,266.197693 377.108612,263.241577 371.903442,260.733551 
	C369.680817,259.662598 366.756317,258.572723 364.586395,259.144592 
	C358.053070,260.866364 354.137939,257.077728 350.284180,253.234558 
	C343.723206,246.691681 337.911530,239.303497 330.846863,233.391495 
	C325.876434,229.232025 319.258881,227.088959 313.542877,223.760330 
	C306.130371,219.443726 298.882904,214.843719 291.255463,209.798859 
	C289.405640,206.573502 288.438263,203.158951 286.180084,201.446136 
	C283.296753,199.259094 279.371338,198.445953 275.847961,196.704239 
	C275.082550,194.960434 274.364197,193.553040 273.222473,191.316193 
	C276.597900,190.834991 279.417480,190.433014 282.237061,190.031052 
z"/>
<path fill="#4E8BFA" opacity="1.000000" stroke="none" 
	d="
M360.987122,283.987793 
	C362.608124,284.718201 364.354797,285.254669 365.829559,286.210724 
	C374.882660,292.079651 383.854919,298.073273 392.907288,303.943390 
	C394.262543,304.822205 395.897217,305.270111 397.777283,305.939270 
	C403.443115,320.583862 408.724335,335.210114 414.043762,349.822479 
	C414.480927,351.023346 415.177795,352.129669 415.795471,353.641174 
	C411.386475,351.197784 406.803436,348.579010 402.528076,345.528992 
	C399.178741,343.139648 396.344421,340.037659 393.047729,337.563507 
	C382.862762,329.920013 374.525604,320.527130 366.678253,310.597565 
	C359.077545,300.980072 351.220703,291.565216 343.546661,282.004974 
	C342.529572,280.737885 341.926819,279.138153 341.399231,277.426544 
	C347.701599,280.952332 353.736908,284.744080 359.862640,288.592651 
	C360.367737,287.732513 360.748108,287.351440 360.810974,286.923706 
	C360.953003,285.957306 360.938141,284.967865 360.987122,283.987793 
z"/>
<path fill="#389AC8" opacity="1.000000" stroke="none" 
	d="
M275.895050,197.040680 
	C279.371338,198.445953 283.296753,199.259094 286.180084,201.446136 
	C288.438263,203.158951 289.405640,206.573502 290.970459,209.625000 
	C286.049072,208.951416 281.127106,207.735565 276.136993,206.955780 
	C275.238617,206.815369 274.059631,208.470551 272.973114,209.654907 
	C252.217590,207.924744 235.802307,217.523544 220.825806,229.996567 
	C207.433548,241.150162 194.511017,252.899078 181.806839,264.838135 
	C170.569580,275.398621 159.929123,286.593536 148.990463,297.473419 
	C148.067017,298.391907 146.880585,299.045959 145.494797,299.911926 
	C146.865967,293.787323 148.558670,287.573700 150.939377,281.141418 
	C153.166641,280.032196 154.935776,279.390625 156.210648,278.213623 
	C175.002426,260.864929 193.569489,243.269058 212.544006,226.123764 
	C220.787979,218.674515 229.671692,212.069504 240.676575,208.593933 
	C246.750198,206.675751 252.234268,202.890778 258.399231,199.944504 
	C264.507935,198.974655 270.201477,198.007660 275.895050,197.040680 
z"/>
<path fill="#F15141" opacity="1.000000" stroke="none" 
	d="
M354.055237,161.595917 
	C344.406738,155.694412 332.970459,150.973679 325.476013,142.687698 
	C318.386108,134.848984 312.622589,125.766151 303.980377,119.203362 
	C302.919891,118.398033 302.657806,116.585846 301.922821,115.299011 
	C299.665253,111.346321 296.905579,107.608101 295.190582,103.437202 
	C293.294128,98.825066 292.336395,93.826935 290.968689,88.568588 
	C300.131927,89.936859 307.990417,94.605782 314.844543,100.519173 
	C326.858765,110.884438 336.437897,123.339111 343.285065,137.738373 
	C346.978577,145.505707 350.429138,153.388596 354.055237,161.595917 
z"/>
<path fill="#CC5B6B" opacity="1.000000" stroke="none" 
	d="
M370.900391,210.581070 
	C366.589050,208.533951 361.989655,206.543976 358.124023,203.592911 
	C345.407074,193.884705 332.930695,183.859818 320.439026,173.860245 
	C319.075928,172.769043 318.213287,171.052673 317.064941,168.940796 
	C317.849243,165.595444 317.214691,163.729034 314.744904,162.019409 
	C311.393982,159.699875 308.595123,156.583252 305.246124,154.260330 
	C302.087372,152.069351 301.574615,149.913040 303.998291,147.001831 
	C307.040771,148.685242 310.006927,150.528931 313.140167,152.021851 
	C322.317871,156.394867 331.737152,160.295898 340.721313,165.028244 
	C347.153748,168.416489 353.038208,172.844955 359.502441,176.881851 
	C363.541260,188.035599 367.244843,199.116806 370.900391,210.581070 
z"/>
<path fill="#43A5AE" opacity="1.000000" stroke="none" 
	d="
M155.171829,265.004059 
	C156.784851,259.253479 158.397858,253.502869 160.435684,247.337784 
	C164.414551,244.267776 168.167847,241.838943 171.489792,238.919357 
	C190.717377,222.020462 209.843262,205.005844 229.439529,188.030075 
	C238.649979,188.029755 247.424469,188.029755 257.219910,188.029755 
	C255.380371,191.911377 254.194077,194.414597 252.569031,196.933167 
	C243.753754,197.447144 235.776794,199.051056 228.627808,203.931854 
	C206.352707,219.139587 187.210541,237.994339 167.354446,256.034332 
	C163.641739,259.407440 159.250122,262.033325 155.171829,265.004059 
z"/>
<path fill="#C8AE3A" opacity="1.000000" stroke="none" 
	d="
M205.874176,124.928596 
	C212.889633,112.168076 222.723648,102.105042 235.048355,94.419228 
	C236.145874,93.734787 237.190552,92.965630 238.692184,92.512825 
	C241.414169,98.012939 243.573425,103.299042 246.053223,108.430237 
	C247.146759,110.692955 248.574417,112.990204 250.409546,114.655647 
	C253.712708,117.653412 257.437256,120.186874 260.948547,123.279877 
	C259.354126,125.595482 256.350525,127.685425 256.522980,129.468185 
	C256.962250,134.009995 254.674881,134.070984 251.565002,134.003891 
	C248.743454,133.943024 245.920029,133.969284 242.673157,133.927460 
	C239.114548,133.588318 235.977798,133.010040 232.846542,133.038574 
	C229.076859,133.072891 226.140671,132.396759 224.114563,128.685669 
	C223.371231,127.324181 221.004883,126.392822 219.249268,126.129562 
	C214.830246,125.466888 210.337418,125.296394 205.874176,124.928596 
z"/>
<path fill="#5FB585" opacity="1.000000" stroke="none" 
	d="
M174.600449,197.098251 
	C178.432785,194.225998 182.256317,191.885880 185.395279,188.840225 
	C197.718048,176.883682 213.298462,171.648209 229.939575,167.027130 
	C231.144119,168.310333 231.646225,169.563660 232.095108,170.835770 
	C232.463013,171.878403 232.767593,172.943375 233.079102,174.418198 
	C232.357880,177.550919 231.657776,180.263885 230.559631,182.985001 
	C223.325775,185.514008 216.124466,187.339142 209.729385,190.698898 
	C195.933273,197.946884 184.743073,208.758926 173.279129,219.135406 
	C171.516037,220.731247 169.212524,221.730026 167.158951,223.004944 
	C169.531677,214.438705 171.904404,205.872467 174.600449,197.098251 
z"/>
<path fill="#3DA0BB" opacity="1.000000" stroke="none" 
	d="
M155.092865,265.388000 
	C159.250122,262.033325 163.641739,259.407440 167.354446,256.034332 
	C187.210541,237.994339 206.352707,219.139587 228.627808,203.931854 
	C235.776794,199.051056 243.753754,197.447144 252.861237,197.088013 
	C255.056168,198.134125 256.520142,199.040741 257.984100,199.947357 
	C252.234268,202.890778 246.750198,206.675751 240.676575,208.593933 
	C229.671692,212.069504 220.787979,218.674515 212.544006,226.123764 
	C193.569489,243.269058 175.002426,260.864929 156.210648,278.213623 
	C154.935776,279.390625 153.166641,280.032196 151.262192,280.940002 
	C152.269302,275.895477 153.641602,270.833710 155.092865,265.388000 
z"/>
<path fill="#E58F30" opacity="1.000000" stroke="none" 
	d="
M260.985779,122.914307 
	C257.437256,120.186874 253.712708,117.653412 250.409546,114.655647 
	C248.574417,112.990204 247.146759,110.692955 246.053223,108.430237 
	C243.573425,103.299042 241.414169,98.012939 239.030640,92.457626 
	C250.364777,86.597725 262.411255,84.216995 275.549561,85.081917 
	C276.519135,93.833992 277.138916,102.522537 277.415100,111.221985 
	C277.462402,112.712685 276.142242,114.309143 275.275909,115.749779 
	C274.326050,117.329308 273.170135,118.784889 271.719360,120.735733 
	C267.885040,121.756081 264.435425,122.335190 260.985779,122.914307 
z"/>
<path fill="#55AE93" opacity="1.000000" stroke="none" 
	d="
M166.982941,223.346405 
	C169.212524,221.730026 171.516037,220.731247 173.279129,219.135406 
	C184.743073,208.758926 195.933273,197.946884 209.729385,190.698898 
	C216.124466,187.339142 223.325775,185.514008 230.495270,183.319885 
	C230.220505,185.107864 229.612045,186.569122 229.003571,188.030396 
	C209.843262,205.005844 190.717377,222.020462 171.489792,238.919357 
	C168.167847,241.838943 164.414551,244.267776 160.512329,246.952118 
	C162.378403,239.216614 164.592667,231.452255 166.982941,223.346405 
z"/>
<path fill="#A1C04F" opacity="1.000000" stroke="none" 
	d="
M205.559845,125.076904 
	C210.337418,125.296394 214.830246,125.466888 219.249268,126.129562 
	C221.004883,126.392822 223.371231,127.324181 224.114563,128.685669 
	C226.140671,132.396759 229.076859,133.072891 232.846542,133.038574 
	C235.977798,133.010040 239.114548,133.588318 242.741562,134.266998 
	C244.460587,137.092911 245.686935,139.549591 246.913284,142.006271 
	C241.516617,141.926758 236.010986,142.480148 230.756332,141.575653 
	C226.219772,140.794769 221.836197,139.557510 217.748886,142.095978 
	C215.790497,143.312256 214.506653,145.654282 213.008316,147.558075 
	C211.961731,148.887894 211.383286,150.980270 210.056259,151.629761 
	C202.741898,155.209595 195.261566,158.450302 187.495834,161.877609 
	C193.184189,149.707016 199.214859,137.466125 205.559845,125.076904 
z"/>
<path fill="#328AF1" opacity="1.000000" stroke="none" 
	d="
M181.279480,322.820984 
	C180.712189,322.838623 180.199951,322.706848 180.175949,322.514191 
	C179.585312,317.774200 175.751709,315.889374 172.195465,313.296082 
	C177.050034,306.483521 181.717865,299.623901 187.214401,293.509186 
	C204.103119,274.721100 222.527878,257.596008 243.673294,243.594727 
	C245.743195,242.224167 247.876862,240.713333 250.205078,240.015732 
	C256.165039,238.229980 259.459198,233.995285 262.037018,228.735123 
	C262.705048,227.371948 264.257751,226.442307 266.126221,225.161102 
	C282.243134,226.312042 289.653625,231.705505 292.959473,244.012711 
	C287.939423,243.731369 282.919403,243.450027 277.003906,243.118500 
	C277.003906,246.014450 277.003906,249.054199 277.005005,252.547287 
	C260.068848,251.963730 246.259155,259.768829 233.998474,269.869537 
	C221.498901,280.167023 210.018753,291.744354 198.498215,303.170563 
	C192.406952,309.211945 187.179459,316.124146 181.279480,322.820984 
z"/>
<path fill="#4785ED" opacity="1.000000" stroke="none" 
	d="
M293.270630,244.161041 
	C289.653625,231.705505 282.243134,226.312042 266.435150,225.006470 
	C265.699463,223.587219 265.376953,222.170151 265.021545,220.392273 
	C268.814301,218.490616 272.639984,216.949799 276.781677,215.217865 
	C288.309357,220.164383 300.955231,222.848831 308.960785,233.486771 
	C311.450867,236.795624 313.233124,240.841248 316.261169,243.499634 
	C323.071686,249.478790 330.278687,255.053268 337.657776,260.325714 
	C346.665070,266.761536 354.696899,274.053192 360.911194,283.653778 
	C360.938141,284.967865 360.953003,285.957306 360.810974,286.923706 
	C360.748108,287.351440 360.367737,287.732513 359.862640,288.592651 
	C353.736908,284.744080 347.701599,280.952332 341.325684,277.080292 
	C334.113525,271.904572 327.348907,266.655182 320.326447,261.776917 
	C316.675995,259.241119 312.570190,257.360779 308.331055,255.111084 
	C303.188599,251.461670 298.385193,247.885529 293.270630,244.161041 
z"/>
<path fill="#BD7E5A" opacity="1.000000" stroke="none" 
	d="
M247.384125,141.991577 
	C245.686935,139.549591 244.460587,137.092911 243.165833,134.296677 
	C245.920029,133.969284 248.743454,133.943024 251.565002,134.003891 
	C254.674881,134.070984 256.962250,134.009995 256.522980,129.468185 
	C256.350525,127.685425 259.354126,125.595482 260.948547,123.279861 
	C264.435425,122.335190 267.885040,121.756081 271.729889,121.109375 
	C274.916595,124.014008 277.647614,127.046585 280.526215,129.931915 
	C281.878632,131.287491 283.368591,132.643677 285.048645,133.510345 
	C291.826599,137.006760 299.188049,139.611359 303.818420,146.721375 
	C301.574615,149.913040 302.087372,152.069351 305.246124,154.260330 
	C308.595123,156.583252 311.393982,159.699875 314.744904,162.019409 
	C317.214691,163.729034 317.849243,165.595444 316.984558,168.603851 
	C315.530334,168.574478 313.750427,168.613647 312.731628,167.752457 
	C304.858521,161.097305 294.624084,160.145370 285.551910,156.436905 
	C283.298065,155.515610 280.276733,156.471893 276.918365,156.779343 
	C273.115234,156.328293 270.001953,155.663040 266.888641,154.997803 
	C266.067902,153.480499 264.661896,152.011520 264.531952,150.437225 
	C264.072784,144.874557 261.825256,142.341919 256.203613,142.059021 
	C253.426376,141.919250 250.638184,141.997375 247.384125,141.991577 
z"/>
<path fill="#7D9585" opacity="1.000000" stroke="none" 
	d="
M266.657959,155.242462 
	C270.001953,155.663040 273.115234,156.328293 276.642944,157.003693 
	C280.729919,161.472565 281.719330,167.749100 287.215576,171.100983 
	C289.273285,172.355881 290.334961,175.243988 291.933105,177.735031 
	C289.119324,178.080002 285.530060,175.819229 284.194916,180.864517 
	C284.009918,181.563599 281.336456,181.604126 279.148010,181.717209 
	C271.973236,176.223206 264.653564,174.936249 256.503723,176.451538 
	C254.704620,176.786072 252.243301,175.784592 250.669769,174.614502 
	C247.920334,172.569962 245.340439,171.720596 241.927551,172.673050 
	C239.083344,173.466797 236.049881,173.582443 233.100250,173.998413 
	C232.767593,172.943375 232.463013,171.878403 232.095108,170.835770 
	C231.646225,169.563660 231.144119,168.310333 230.328415,166.993317 
	C230.467087,163.423477 232.359589,161.270874 235.907303,160.556976 
	C244.389313,158.850113 252.618347,155.410263 261.625427,157.418533 
	C263.013489,157.728043 264.816254,156.177460 266.657959,155.242462 
z"/>
<path fill="#5A9B9F" opacity="1.000000" stroke="none" 
	d="
M233.079117,174.418182 
	C236.049881,173.582443 239.083344,173.466797 241.927551,172.673050 
	C245.340439,171.720596 247.920334,172.569962 250.669769,174.614502 
	C252.243301,175.784592 254.704620,176.786072 256.503723,176.451538 
	C264.653564,174.936249 271.973236,176.223206 278.733887,181.698074 
	C279.980499,184.400604 280.974213,186.889938 282.102478,189.705170 
	C279.417480,190.433014 276.597900,190.834991 273.222473,191.316193 
	C274.364197,193.553040 275.082550,194.960434 275.847961,196.704254 
	C270.201477,198.007660 264.507935,198.974655 258.399231,199.944489 
	C256.520142,199.040741 255.056168,198.134125 253.299988,197.072647 
	C254.194077,194.414597 255.380371,191.911377 257.219910,188.029755 
	C247.424469,188.029755 238.649979,188.029755 229.439529,188.030075 
	C229.612045,186.569122 230.220505,185.107864 230.893326,183.311707 
	C231.657776,180.263885 232.357880,177.550919 233.079117,174.418182 
z"/>
</svg>