<!-- Generated by readme-aura https://github.com/collectioneur/readme-aura -->
<svg width="860" height="140" viewBox="0 0 860 140" xmlns="http://www.w3.org/2000/svg"><defs><clipPath id="satori_bc-id"><path x="0" y="0" width="860" height="140" d="M16,0 h828 a16,16 0 0 1 16,16 v108 a16,16 0 0 1 -16,16 h-828 a16,16 0 0 1 -16,-16 v-108 a16,16 0 0 1 16,-16"/></clipPath></defs><clipPath id="satori_cp-id"><path x="0" y="0" width="860" height="140" d="M16,0 h828 a16,16 0 0 1 16,16 v108 a16,16 0 0 1 -16,16 h-828 a16,16 0 0 1 -16,-16 v-108 a16,16 0 0 1 16,-16"/></clipPath><mask id="satori_om-id"><rect x="1" y="1" width="858" height="138" fill="#fff"/><path width="860" height="140" fill="none" stroke="#000" stroke-width="2" d="M4.686,4.686 A16,16 0 0 1 16,0 h828 a16,16 0 0 1 16,16 v108 a16,16 0 0 1 -16,16 h-828 a16,16 0 0 1 -16,-16 v-108 A16,16 0 0 1 4.686,4.686"/></mask><path x="0" y="0" width="860" height="140" fill="#08080c" d="M16,0 h828 a16,16 0 0 1 16,16 v108 a16,16 0 0 1 -16,16 h-828 a16,16 0 0 1 -16,-16 v-108 a16,16 0 0 1 16,-16"/><path width="860" height="140" clip-path="url(#satori_bc-id)" fill="none" stroke="rgba(110,80,220,0.18)" stroke-width="2" d="M4.686,4.686 A16,16 0 0 1 16,0 h828 a16,16 0 0 1 16,16 v108 a16,16 0 0 1 -16,16 h-828 a16,16 0 0 1 -16,-16 v-108 A16,16 0 0 1 4.686,4.686"/><clipPath id="satori_cp-id-0" clip-path="url(#satori_cp-id)"><rect x="1" y="1" width="860" height="140"/></clipPath><mask id="satori_om-id-0"><rect x="1" y="1" width="860" height="140" fill="#fff" mask="url(#satori_om-id)"/></mask><svg x="1" y="1" width="860" height="140" preserveAspectRatio="none" clip-path="url(#satori_cp-id-0)" mask="url(#satori_om-id-0)"><defs><radialGradient id="gs1" cx="50%" cy="50%" r="50%"><stop offset="0%" stop-color="rgba(110,20,210,0.65)"></stop><stop offset="45%" stop-color="rgba(80,15,170,0.28)"></stop><stop offset="70%" stop-color="rgba(80,15,170,0)"></stop></radialGradient><radialGradient id="gs2" cx="50%" cy="50%" r="50%"><stop offset="0%" stop-color="rgba(40,70,255,0.55)"></stop><stop offset="45%" stop-color="rgba(20,50,200,0.22)"></stop><stop offset="70%" stop-color="rgba(20,50,200,0)"></stop></radialGradient><radialGradient id="gs3" cx="50%" cy="50%" r="50%"><stop offset="0%" stop-color="rgba(0,140,255,0.42)"></stop><stop offset="70%" stop-color="rgba(0,140,255,0)"></stop></radialGradient><radialGradient id="gs4" cx="50%" cy="50%" r="50%"><stop offset="0%" stop-color="rgba(0,195,235,0.30)"></stop><stop offset="70%" stop-color="rgba(0,195,235,0)"></stop></radialGradient><radialGradient id="gs5" cx="50%" cy="50%" r="50%"><stop offset="0%" stop-color="rgba(100,30,210,0.40)"></stop><stop offset="70%" stop-color="rgba(100,30,210,0)"></stop></radialGradient></defs><ellipse id="glow-s1" cx="710" cy="150" rx="210" ry="150" fill="url(#gs1)"></ellipse><ellipse id="glow-s2" cx="550" cy="140" rx="190" ry="140" fill="url(#gs2)"></ellipse><ellipse id="glow-s3" cx="400" cy="130" rx="170" ry="130" fill="url(#gs3)"></ellipse><ellipse id="glow-s4" cx="250" cy="140" rx="150" ry="120" fill="url(#gs4)"></ellipse><ellipse id="glow-s5" cx="100" cy="150" rx="130" ry="110" fill="url(#gs5)"></ellipse><style>

        @keyframes float-slow {
          0%, 100% { transform: translateX(0px); opacity: 0.8; }
          50% { transform: translateX(350px); opacity: 1.2; }
        }
        @keyframes float-medium {
          0%, 100% { transform: translateX(0px); opacity: 0.7; }
          50% { transform: translateX(-250px); opacity: 1.1; }
        }
        @keyframes float-fast {
          0%, 100% { transform: translateX(0px); opacity: 0.9; }
          50% { transform: translateX(200px); opacity: 0.6; }
        }
        @keyframes float-diagonal {
          0%, 100% { transform: translate(0px, 0px); opacity: 0.75; }
          50% { transform: translate(120px, 30px); opacity: 1.0; }
        }
        @keyframes float-wave {
          0%, 100% { transform: translateX(0px); opacity: 0.65; }
          33% { transform: translateX(-160px); opacity: 0.9; }
          66% { transform: translateX(80px); opacity: 1.0; }
        }
        @keyframes float-pulse {
          0%, 100% { transform: scale(1); opacity: 0.8; }
          50% { transform: scale(1.3); opacity: 0.4; }
        }
        #glow-s1 { animation: float-slow 8s ease-in-out infinite; }
        #glow-s2 { animation: float-medium 12s ease-in-out infinite; }
        #glow-s3 { animation: float-fast 9s ease-in-out infinite; }
        #glow-s4 { animation: float-diagonal 10s ease-in-out infinite; }
        #glow-s5 { animation: float-wave 14s ease-in-out infinite; }
      
</style>
</svg><mask id="satori_om-id-0-0"><rect x="1" y="1" width="0" height="140" fill="#fff" mask="url(#satori_om-id)"/></mask><mask id="satori_om-id-0-0-0"><rect x="1" y="1" width="0" height="140" fill="#fff" mask="url(#satori_om-id)"/></mask><mask id="satori_om-id-0-0-0-0"><rect x="1" y="1" width="0" height="140" fill="#fff" mask="url(#satori_om-id)"/></mask><mask id="satori_om-id-0-0-0-1"><rect x="1" y="1" width="0" height="140" fill="#fff" mask="url(#satori_om-id)"/></mask><mask id="satori_om-id-0-0-0-2"><rect x="1" y="1" width="0" height="140" fill="#fff" mask="url(#satori_om-id)"/></mask><mask id="satori_om-id-0-0-1"><rect x="1" y="1" width="0" height="140" fill="#fff" mask="url(#satori_om-id)"/></mask><mask id="satori_om-id-0-0-1-0"><rect x="1" y="1" width="0" height="140" fill="#fff" mask="url(#satori_om-id)"/></mask><mask id="satori_om-id-0-0-1-1"><rect x="1" y="1" width="0" height="140" fill="#fff" mask="url(#satori_om-id)"/></mask><mask id="satori_om-id-0-0-1-2"><rect x="1" y="1" width="0" height="140" fill="#fff" mask="url(#satori_om-id)"/></mask><mask id="satori_om-id-0-0-2"><rect x="1" y="1" width="0" height="140" fill="#fff" mask="url(#satori_om-id)"/></mask><mask id="satori_om-id-0-0-2-0"><rect x="1" y="1" width="0" height="140" fill="#fff" mask="url(#satori_om-id)"/></mask><mask id="satori_om-id-0-0-2-1"><rect x="1" y="1" width="0" height="140" fill="#fff" mask="url(#satori_om-id)"/></mask><mask id="satori_om-id-0-0-3"><rect x="1" y="1" width="0" height="140" fill="#fff" mask="url(#satori_om-id)"/></mask><mask id="satori_om-id-0-0-3-0"><rect x="1" y="1" width="0" height="140" fill="#fff" mask="url(#satori_om-id)"/></mask><mask id="satori_om-id-0-0-3-1"><rect x="1" y="1" width="0" height="140" fill="#fff" mask="url(#satori_om-id)"/></mask><mask id="satori_om-id-0-0-4"><rect x="1" y="1" width="0" height="140" fill="#fff" mask="url(#satori_om-id)"/></mask><mask id="satori_om-id-0-0-4-0"><rect x="1" y="1" width="0" height="140" fill="#fff" mask="url(#satori_om-id)"/></mask><mask id="satori_om-id-0-0-4-1"><rect x="1" y="1" width="0" height="140" fill="#fff" mask="url(#satori_om-id)"/></mask><mask id="satori_om-id-0-1"><rect x="1" y="1" width="0" height="140" fill="#fff" mask="url(#satori_om-id)"/></mask><mask id="satori_om-id-0-2"><rect x="1" y="1" width="0" height="140" fill="#fff" mask="url(#satori_om-id)"/></mask><mask id="satori_om-id-0-3"><rect x="1" y="1" width="0" height="140" fill="#fff" mask="url(#satori_om-id)"/></mask><mask id="satori_om-id-0-4"><rect x="1" y="1" width="0" height="140" fill="#fff" mask="url(#satori_om-id)"/></mask><mask id="satori_om-id-0-5"><rect x="1" y="1" width="0" height="140" fill="#fff" mask="url(#satori_om-id)"/></mask><defs><clipPath id="satori_bc-id-1" clip-path="url(#satori_cp-id)"><rect x="1" y="30" width="198" height="80"/></clipPath></defs><mask id="satori_om-id-1"><rect x="1" y="30" width="197" height="80" fill="#fff" mask="url(#satori_om-id)"/><path width="198" height="80" fill="none" stroke="#000" stroke-width="2" d="M199,30 A0,0 0 0 1 199,30 v80 A0,0 0 0 1 199,110"/></mask><path width="198" height="80" clip-path="url(#satori_bc-id-1)" fill="none" stroke="rgba(255,255,255,0.06)" stroke-width="2" d="M199,30 A0,0 0 0 1 199,30 v80 A0,0 0 0 1 199,110"/><mask id="satori_om-id-1-0"><rect x="87" y="46" width="26" height="30" fill="#fff" mask="url(#satori_om-id)"/></mask><g mask="url(#satori_om-id)" clip-path="url(#satori_cp-id)"><path fill="#a78bfa" d="M93.2 50.2L98.0 50.2L98.0 72L93.5 72L93.5 54.1L93.4 54.1L88.4 57.7L88.4 53.6L93.2 50.2ZM106.1 50.2L110.9 50.2L110.9 72L106.4 72L106.4 54.1L106.3 54.1L101.3 57.7L101.3 53.6L106.1 50.2Z "/></g><mask id="satori_om-id-1-1"><rect x="77" y="81" width="45" height="13" fill="#fff" mask="url(#satori_om-id)"/></mask><g mask="url(#satori_om-id)" clip-path="url(#satori_cp-id)"><path fill="rgba(200,195,225,0.45)" d="M79.4 92L77.7 92L77.7 84.0L80.8 84.0Q81.8 84.0 82.4 84.3Q83.0 84.6 83.4 85.2Q83.7 85.8 83.7 86.6Q83.7 87.4 83.4 88.0Q83.0 88.5 82.4 88.8L82.4 88.8Q82.3 88.9 82.3 88.9L82.3 88.9L84.0 92L82.2 92L80.6 89.1L79.4 89.1L79.4 92ZM79.4 85.4L79.4 87.8L80.5 87.8Q81.0 87.8 81.4 87.7Q81.7 87.5 81.9 87.3Q82.0 87.0 82.0 86.6L82.0 86.6Q82.0 86.2 81.9 85.9Q81.7 85.6 81.4 85.5Q81.0 85.4 80.5 85.4L80.5 85.4L79.4 85.4ZM91.8 92L86.4 92L86.4 84.0L91.8 84.0L91.8 85.4L88.1 85.4L88.1 87.3L91.5 87.3L91.5 88.6L88.1 88.6L88.1 90.6L91.8 90.6L91.8 92ZM96.3 92L94.6 92L94.6 84.0L97.8 84.0Q98.7 84.0 99.3 84.3Q99.9 84.7 100.3 85.3Q100.6 85.9 100.6 86.7L100.6 86.7Q100.6 87.5 100.3 88.1Q99.9 88.7 99.3 89.0Q98.6 89.4 97.7 89.4L97.7 89.4L96.3 89.4L96.3 92ZM96.3 85.4L96.3 88.1L97.5 88.1Q98.0 88.1 98.3 87.9Q98.6 87.7 98.8 87.4Q98.9 87.1 98.9 86.7Q98.9 86.3 98.8 86.0Q98.6 85.7 98.3 85.5Q98.0 85.4 97.4 85.4L97.4 85.4L96.3 85.4ZM106.8 92.1L106.8 92.1Q105.7 92.1 104.9 91.6Q104.0 91.1 103.5 90.2Q103.0 89.3 103.0 88.0L103.0 88.0Q103.0 86.7 103.5 85.8Q104.0 84.9 104.9 84.4Q105.7 83.9 106.8 83.9L106.8 83.9Q107.8 83.9 108.7 84.4Q109.5 84.9 110.0 85.8Q110.5 86.7 110.5 88.0L110.5 88.0Q110.5 89.3 110.0 90.2Q109.5 91.1 108.7 91.6Q107.8 92.1 106.8 92.1ZM106.8 90.7L106.8 90.7Q107.4 90.7 107.9 90.3Q108.3 90.0 108.6 89.5Q108.8 88.9 108.8 88.0L108.8 88.0Q108.8 87.1 108.6 86.5Q108.3 86.0 107.9 85.6Q107.4 85.3 106.8 85.3L106.8 85.3Q106.2 85.3 105.7 85.7Q105.2 86.0 105.0 86.6Q104.7 87.1 104.7 88.0L104.7 88.0Q104.7 88.9 105.0 89.4Q105.2 90.0 105.7 90.3Q106.2 90.7 106.8 90.7ZM116.2 92.1L116.2 92.1Q115.2 92.1 114.5 91.8Q113.8 91.5 113.4 90.9Q113.0 90.4 113.0 89.5L113.0 89.5L114.6 89.5Q114.6 89.9 114.8 90.2Q115.0 90.5 115.4 90.6Q115.7 90.7 116.2 90.7L116.2 90.7Q116.6 90.7 116.9 90.6Q117.2 90.5 117.4 90.2Q117.6 90.0 117.6 89.7L117.6 89.7Q117.6 89.4 117.4 89.3Q117.3 89.1 117.0 88.9Q116.7 88.8 116.2 88.7L116.2 88.7L115.3 88.5Q114.3 88.2 113.8 87.7Q113.2 87.2 113.2 86.3L113.2 86.3Q113.2 85.6 113.6 85.0Q114.0 84.5 114.6 84.2Q115.3 83.9 116.2 83.9L116.2 83.9Q117.1 83.9 117.7 84.2Q118.4 84.5 118.8 85.0Q119.1 85.6 119.1 86.3L119.1 86.3L117.6 86.3Q117.5 85.8 117.2 85.5Q116.8 85.3 116.2 85.3L116.2 85.3Q115.8 85.3 115.5 85.4Q115.2 85.5 115.0 85.7Q114.9 85.9 114.9 86.2L114.9 86.2Q114.9 86.5 115.0 86.7Q115.2 86.9 115.5 87.0Q115.8 87.1 116.1 87.2L116.1 87.2L116.9 87.4Q117.4 87.5 117.8 87.7Q118.2 87.9 118.6 88.2Q118.9 88.4 119.1 88.8Q119.3 89.2 119.3 89.7L119.3 89.7Q119.3 90.4 118.9 91.0Q118.5 91.5 117.8 91.8Q117.1 92.1 116.2 92.1Z "/></g><defs><clipPath id="satori_bc-id-2" clip-path="url(#satori_cp-id)"><rect x="199" y="30" width="199" height="80"/></clipPath></defs><mask id="satori_om-id-2"><rect x="199" y="30" width="198" height="80" fill="#fff" mask="url(#satori_om-id)"/><path width="199" height="80" fill="none" stroke="#000" stroke-width="2" d="M398,30 A0,0 0 0 1 398,30 v80 A0,0 0 0 1 398,110"/></mask><path width="199" height="80" clip-path="url(#satori_bc-id-2)" fill="none" stroke="rgba(255,255,255,0.06)" stroke-width="2" d="M398,30 A0,0 0 0 1 398,30 v80 A0,0 0 0 1 398,110"/><mask id="satori_om-id-2-0"><rect x="291" y="46" width="13" height="30" fill="#fff" mask="url(#satori_om-id)"/></mask><g mask="url(#satori_om-id)" clip-path="url(#satori_cp-id)"><path fill="#60a5fa" d="M297.2 50.2L302.0 50.2L302.0 72L297.5 72L297.5 54.1L297.4 54.1L292.4 57.7L292.4 53.6L297.2 50.2Z "/></g><mask id="satori_om-id-2-1"><rect x="275" y="81" width="45" height="13" fill="#fff" mask="url(#satori_om-id)"/></mask><g mask="url(#satori_om-id)" clip-path="url(#satori_cp-id)"><path fill="rgba(200,195,225,0.45)" d="M278.7 92.1L278.7 92.1Q277.7 92.1 277.0 91.8Q276.3 91.5 275.9 90.9Q275.5 90.4 275.5 89.5L275.5 89.5L277.1 89.5Q277.1 89.9 277.3 90.2Q277.5 90.5 277.9 90.6Q278.2 90.7 278.6 90.7L278.6 90.7Q279.1 90.7 279.4 90.6Q279.7 90.5 279.9 90.2Q280.1 90.0 280.1 89.7L280.1 89.7Q280.1 89.4 279.9 89.3Q279.8 89.1 279.5 88.9Q279.2 88.8 278.7 88.7L278.7 88.7L277.8 88.5Q276.8 88.2 276.2 87.7Q275.7 87.2 275.7 86.3L275.7 86.3Q275.7 85.6 276.1 85.0Q276.5 84.5 277.1 84.2Q277.8 83.9 278.7 83.9L278.7 83.9Q279.6 83.9 280.2 84.2Q280.9 84.5 281.3 85.0Q281.6 85.6 281.6 86.3L281.6 86.3L280.1 86.3Q280.0 85.8 279.6 85.5Q279.3 85.3 278.7 85.3L278.7 85.3Q278.2 85.3 278.0 85.4Q277.7 85.5 277.5 85.7Q277.4 85.9 277.4 86.2L277.4 86.2Q277.4 86.5 277.5 86.7Q277.7 86.9 278.0 87.0Q278.3 87.1 278.6 87.2L278.6 87.2L279.4 87.4Q279.9 87.5 280.3 87.7Q280.7 87.9 281.1 88.2Q281.4 88.4 281.6 88.8Q281.7 89.2 281.7 89.7L281.7 89.7Q281.7 90.4 281.4 91.0Q281.0 91.5 280.3 91.8Q279.6 92.1 278.7 92.1ZM286.6 85.4L284.1 85.4L284.1 84.0L290.6 84.0L290.6 85.4L288.2 85.4L288.2 92L286.6 92L286.6 85.4ZM294.6 92L292.8 92L295.5 84.0L297.7 84.0L300.5 92L298.7 92L298.1 90.1L295.2 90.1L294.6 92ZM295.6 88.9L297.6 88.9L297.4 88.1Q297.2 87.4 296.9 86.5L296.9 86.5Q296.8 85.9 296.6 85.3L296.6 85.3Q296.4 85.9 296.3 86.5L296.3 86.5Q296.1 87.4 295.9 88.1L295.9 88.1L295.6 88.9ZM304.6 92L303.0 92L303.0 84.0L306.1 84.0Q307.0 84.0 307.7 84.3Q308.3 84.6 308.6 85.2Q309.0 85.8 309.0 86.6Q309.0 87.4 308.6 88.0Q308.3 88.5 307.6 88.8L307.6 88.8Q307.6 88.9 307.5 88.9L307.5 88.9L309.3 92L307.4 92L305.9 89.1L304.6 89.1L304.6 92ZM304.6 85.4L304.6 87.8L305.8 87.8Q306.3 87.8 306.6 87.7Q307.0 87.5 307.1 87.3Q307.3 87.0 307.3 86.6L307.3 86.6Q307.3 86.2 307.1 85.9Q307.0 85.6 306.6 85.5Q306.3 85.4 305.8 85.4L305.8 85.4L304.6 85.4ZM314.6 92.1L314.6 92.1Q313.7 92.1 313.0 91.8Q312.3 91.5 311.9 90.9Q311.5 90.4 311.4 89.5L311.4 89.5L313.0 89.5Q313.1 89.9 313.3 90.2Q313.5 90.5 313.8 90.6Q314.2 90.7 314.6 90.7L314.6 90.7Q315.1 90.7 315.4 90.6Q315.7 90.5 315.9 90.2Q316.1 90.0 316.1 89.7L316.1 89.7Q316.1 89.4 315.9 89.3Q315.8 89.1 315.4 88.9Q315.1 88.8 314.7 88.7L314.7 88.7L313.8 88.5Q312.8 88.2 312.2 87.7Q311.7 87.2 311.7 86.3L311.7 86.3Q311.7 85.6 312.0 85.0Q312.4 84.5 313.1 84.2Q313.8 83.9 314.7 83.9L314.7 83.9Q315.5 83.9 316.2 84.2Q316.9 84.5 317.2 85.0Q317.6 85.6 317.6 86.3L317.6 86.3L316.0 86.3Q316.0 85.8 315.6 85.5Q315.3 85.3 314.6 85.3L314.6 85.3Q314.2 85.3 313.9 85.4Q313.6 85.5 313.5 85.7Q313.3 85.9 313.3 86.2L313.3 86.2Q313.3 86.5 313.5 86.7Q313.7 86.9 314.0 87.0Q314.3 87.1 314.6 87.2L314.6 87.2L315.3 87.4Q315.8 87.5 316.3 87.7Q316.7 87.9 317.0 88.2Q317.4 88.4 317.5 88.8Q317.7 89.2 317.7 89.7L317.7 89.7Q317.7 90.4 317.4 91.0Q317.0 91.5 316.3 91.8Q315.6 92.1 314.6 92.1Z "/></g><defs><clipPath id="satori_bc-id-3" clip-path="url(#satori_cp-id)"><rect x="398" y="30" width="236" height="80"/></clipPath></defs><mask id="satori_om-id-3"><rect x="398" y="30" width="235" height="80" fill="#fff" mask="url(#satori_om-id)"/><path width="236" height="80" fill="none" stroke="#000" stroke-width="2" d="M634,30 A0,0 0 0 1 634,30 v80 A0,0 0 0 1 634,110"/></mask><path width="236" height="80" clip-path="url(#satori_bc-id-3)" fill="none" stroke="rgba(255,255,255,0.06)" stroke-width="2" d="M634,30 A0,0 0 0 1 634,30 v80 A0,0 0 0 1 634,110"/><mask id="satori_om-id-3-0"><rect x="506" y="46" width="19" height="30" fill="#fff" mask="url(#satori_om-id)"/></mask><g mask="url(#satori_om-id)" clip-path="url(#satori_cp-id)"><path fill="#f59e0b" d="M515.2 72.3L515.2 72.3Q513.0 72.3 511.2 71.5Q509.5 70.6 508.4 69.2Q507.4 67.7 507.4 65.9L507.4 65.9L511.7 65.9Q511.8 66.7 512.2 67.4Q512.7 68.0 513.5 68.4Q514.3 68.7 515.2 68.7L515.2 68.7Q516.3 68.7 517.1 68.3Q518.0 67.8 518.5 66.9Q518.9 66.0 518.9 64.9L518.9 64.9Q518.9 63.7 518.5 62.8Q518.0 61.9 517.1 61.4Q516.3 60.9 515.1 60.9L515.1 60.9Q514.1 60.9 513.2 61.3Q512.3 61.7 511.8 62.3L511.8 62.3L507.8 61.6L508.9 50.2L522.1 50.2L522.1 53.9L512.6 53.9L512.0 59.4L512.1 59.4Q512.7 58.6 513.9 58.1Q515.0 57.6 516.4 57.6L516.4 57.6Q517.9 57.6 519.2 58.1Q520.4 58.6 521.3 59.6Q522.3 60.5 522.8 61.9Q523.3 63.2 523.3 64.7L523.3 64.7Q523.3 66.9 522.3 68.6Q521.2 70.3 519.4 71.3Q517.6 72.3 515.2 72.3Z "/></g><mask id="satori_om-id-3-1"><rect x="474" y="81" width="83" height="13" fill="#fff" mask="url(#satori_om-id)"/></mask><g mask="url(#satori_om-id)" clip-path="url(#satori_cp-id)"><path fill="rgba(200,195,225,0.45)" d="M479.8 92L474.7 92L474.7 84.0L476.4 84.0L476.4 90.6L479.8 90.6L479.8 92ZM483.8 92L482.0 92L484.7 84.0L486.9 84.0L489.7 92L487.8 92L487.2 90.1L484.4 90.1L483.8 92ZM484.8 88.9L486.8 88.9L486.6 88.1Q486.3 87.4 486.1 86.5L486.1 86.5Q485.9 85.9 485.8 85.3L485.8 85.3Q485.6 85.9 485.5 86.5L485.5 86.5Q485.2 87.4 485.0 88.1L485.0 88.1L484.8 88.9ZM493.8 92L492.2 92L492.2 84.0L494.0 84.0L496.5 88.0Q496.7 88.4 496.9 88.7Q497.1 89.1 497.3 89.5L497.3 89.5Q497.4 89.8 497.5 90.0L497.5 90.0Q497.5 89.8 497.5 89.6L497.5 89.6Q497.5 89.1 497.4 88.6Q497.4 88.2 497.4 87.8L497.4 87.8L497.4 84.0L499.1 84.0L499.1 92L497.3 92L495.0 88.3Q494.7 87.9 494.5 87.5Q494.3 87.1 494.0 86.7L494.0 86.7Q493.9 86.4 493.7 86.0L493.7 86.0Q493.7 86.3 493.8 86.7L493.8 86.7Q493.8 87.2 493.8 87.6Q493.8 88.0 493.8 88.3L493.8 88.3L493.8 92ZM505.6 92.1L505.6 92.1Q504.5 92.1 503.6 91.6Q502.8 91.1 502.3 90.2Q501.8 89.3 501.8 88.0L501.8 88.0Q501.8 86.7 502.3 85.8Q502.8 84.9 503.7 84.4Q504.5 83.9 505.5 83.9L505.5 83.9Q506.2 83.9 506.8 84.1Q507.4 84.3 507.8 84.6Q508.3 85.0 508.6 85.5Q508.9 86.0 509.0 86.6L509.0 86.6L507.3 86.6Q507.2 86.3 507.1 86.1Q506.9 85.8 506.7 85.7Q506.5 85.5 506.2 85.4Q505.9 85.3 505.6 85.3L505.6 85.3Q505.0 85.3 504.5 85.7Q504.0 86.0 503.7 86.6Q503.5 87.1 503.5 88.0Q503.5 88.8 503.7 89.4Q504.0 90.0 504.5 90.3Q505.0 90.7 505.6 90.7L505.6 90.7Q506.2 90.7 506.6 90.4Q507.0 90.2 507.2 89.8L507.2 89.8Q507.4 89.5 507.5 89.0L507.5 89.0L505.7 89.0L505.7 87.7L509.0 87.7L509.0 88.7Q509.0 89.8 508.6 90.5Q508.1 91.3 507.4 91.7Q506.6 92.1 505.6 92.1ZM515.1 92.1L515.1 92.1Q514.1 92.1 513.4 91.7Q512.6 91.4 512.2 90.7Q511.8 90.1 511.8 89.2L511.8 89.2L511.8 84.0L513.4 84.0L513.4 89.1Q513.4 89.5 513.6 89.9Q513.8 90.2 514.2 90.5Q514.6 90.7 515.1 90.7L515.1 90.7Q515.6 90.7 516.0 90.5Q516.3 90.2 516.6 89.9Q516.8 89.5 516.8 89.1L516.8 89.1L516.8 84.0L518.4 84.0L518.4 89.2Q518.4 90.1 518.0 90.7Q517.6 91.4 516.8 91.7Q516.1 92.1 515.1 92.1ZM522.7 92L520.9 92L523.6 84.0L525.8 84.0L528.6 92L526.8 92L526.1 90.1L523.3 90.1L522.7 92ZM523.7 88.9L525.7 88.9L525.5 88.1Q525.2 87.4 525.0 86.5L525.0 86.5Q524.8 85.9 524.7 85.3L524.7 85.3Q524.5 85.9 524.4 86.5L524.4 86.5Q524.2 87.4 523.9 88.1L523.9 88.1L523.7 88.9ZM534.6 92.1L534.6 92.1Q533.5 92.1 532.6 91.6Q531.8 91.1 531.3 90.2Q530.8 89.3 530.8 88.0L530.8 88.0Q530.8 86.7 531.3 85.8Q531.8 84.9 532.7 84.4Q533.5 83.9 534.6 83.9L534.6 83.9Q535.2 83.9 535.8 84.1Q536.4 84.3 536.9 84.6Q537.3 85.0 537.6 85.5Q537.9 86.0 538.0 86.6L538.0 86.6L536.3 86.6Q536.2 86.3 536.1 86.1Q535.9 85.8 535.7 85.7Q535.5 85.5 535.2 85.4Q534.9 85.3 534.6 85.3L534.6 85.3Q534.0 85.3 533.5 85.7Q533.0 86.0 532.8 86.6Q532.5 87.1 532.5 88.0Q532.5 88.8 532.8 89.4Q533.0 90.0 533.5 90.3Q534.0 90.7 534.6 90.7L534.6 90.7Q535.2 90.7 535.6 90.4Q536.0 90.2 536.2 89.8L536.2 89.8Q536.5 89.5 536.5 89.0L536.5 89.0L534.7 89.0L534.7 87.7L538.1 87.7L538.1 88.7Q538.1 89.8 537.6 90.5Q537.2 91.3 536.4 91.7Q535.6 92.1 534.6 92.1ZM546.2 92L540.8 92L540.8 84.0L546.2 84.0L546.2 85.4L542.5 85.4L542.5 87.3L545.9 87.3L545.9 88.6L542.5 88.6L542.5 90.6L546.2 90.6L546.2 92ZM551.9 92.1L551.9 92.1Q551.0 92.1 550.3 91.8Q549.5 91.5 549.1 90.9Q548.8 90.4 548.7 89.5L548.7 89.5L550.3 89.5Q550.4 89.9 550.6 90.2Q550.8 90.5 551.1 90.6Q551.5 90.7 551.9 90.7L551.9 90.7Q552.4 90.7 552.7 90.6Q553.0 90.5 553.2 90.2Q553.4 90.0 553.4 89.7L553.4 89.7Q553.4 89.4 553.2 89.3Q553.0 89.1 552.7 88.9Q552.4 88.8 552.0 88.7L552.0 88.7L551.1 88.5Q550.1 88.2 549.5 87.7Q548.9 87.2 548.9 86.3L548.9 86.3Q548.9 85.6 549.3 85.0Q549.7 84.5 550.4 84.2Q551.1 83.9 552.0 83.9L552.0 83.9Q552.8 83.9 553.5 84.2Q554.2 84.5 554.5 85.0Q554.9 85.6 554.9 86.3L554.9 86.3L553.3 86.3Q553.3 85.8 552.9 85.5Q552.5 85.3 551.9 85.3L551.9 85.3Q551.5 85.3 551.2 85.4Q550.9 85.5 550.8 85.7Q550.6 85.9 550.6 86.2L550.6 86.2Q550.6 86.5 550.8 86.7Q551.0 86.9 551.3 87.0Q551.6 87.1 551.9 87.2L551.9 87.2L552.6 87.4Q553.1 87.5 553.6 87.7Q554.0 87.9 554.3 88.2Q554.7 88.4 554.8 88.8Q555.0 89.2 555.0 89.7L555.0 89.7Q555.0 90.4 554.7 91.0Q554.3 91.5 553.6 91.8Q552.9 92.1 551.9 92.1Z "/></g><mask id="satori_om-id-4"><rect x="634" y="30" width="225" height="80" fill="#fff" mask="url(#satori_om-id)"/></mask><mask id="satori_om-id-4-0"><rect x="710" y="46" width="73" height="30" fill="#fff" mask="url(#satori_om-id)"/></mask><g mask="url(#satori_om-id)" clip-path="url(#satori_cp-id)"><path fill="#34d399" d="M716.2 50.2L721.0 50.2L721.0 72L716.5 72L716.5 54.1L716.4 54.1L711.4 57.7L711.4 53.6L716.2 50.2ZM732.1 72.3L732.1 72.3Q729.9 72.3 728.1 71.5Q726.4 70.6 725.4 69.2Q724.4 67.7 724.3 65.9L724.3 65.9L728.7 65.9Q728.7 66.7 729.2 67.4Q729.7 68.0 730.4 68.4Q731.2 68.7 732.1 68.7L732.1 68.7Q733.2 68.7 734.1 68.3Q734.9 67.8 735.4 66.9Q735.9 66.0 735.9 64.9L735.9 64.9Q735.9 63.7 735.4 62.8Q734.9 61.9 734.0 61.4Q733.2 60.9 732.1 60.9L732.1 60.9Q731.1 60.9 730.2 61.3Q729.3 61.7 728.8 62.3L728.8 62.3L724.8 61.6L725.8 50.2L739.0 50.2L739.0 53.9L729.5 53.9L729.0 59.4L729.1 59.4Q729.7 58.6 730.8 58.1Q732.0 57.6 733.4 57.6L733.4 57.6Q734.8 57.6 736.1 58.1Q737.3 58.6 738.3 59.6Q739.2 60.5 739.7 61.9Q740.2 63.2 740.2 64.7L740.2 64.7Q740.2 66.9 739.2 68.6Q738.2 70.3 736.4 71.3Q734.5 72.3 732.1 72.3ZM751.7 72.3L751.7 72.3Q749.0 72.3 747.0 71.0Q745.1 69.6 744.0 67.1Q743.0 64.6 743.0 61.1L743.0 61.1Q743.0 57.6 744.0 55.1Q745.1 52.5 747.0 51.2Q749.0 49.9 751.7 49.9L751.7 49.9Q754.5 49.9 756.4 51.2Q758.4 52.6 759.4 55.1Q760.4 57.6 760.4 61.1L760.4 61.1Q760.4 64.6 759.4 67.1Q758.4 69.6 756.4 71.0Q754.5 72.3 751.7 72.3ZM751.7 68.6L751.7 68.6Q753.1 68.6 754.0 67.7Q754.9 66.8 755.4 65.2Q755.9 63.5 755.9 61.1L755.9 61.1Q755.9 58.7 755.4 57.0Q754.9 55.3 754.0 54.5Q753.1 53.6 751.7 53.6L751.7 53.6Q750.4 53.6 749.4 54.5Q748.5 55.3 748.0 57.0Q747.5 58.7 747.5 61.1L747.5 61.1Q747.5 63.5 748.0 65.2Q748.5 66.8 749.4 67.7Q750.4 68.6 751.7 68.6ZM773.9 70.8L770.1 70.8L770.1 65.0L764.5 65.0L764.5 61.5L770.1 61.5L770.1 55.8L773.9 55.8L773.9 61.5L779.5 61.5L779.5 65.0L773.9 65.0L773.9 70.8Z "/></g><mask id="satori_om-id-4-1"><rect x="714" y="81" width="66" height="13" fill="#fff" mask="url(#satori_om-id)"/></mask><g mask="url(#satori_om-id)" clip-path="url(#satori_cp-id)"><path fill="rgba(200,195,225,0.45)" d="M718.2 92.1L718.2 92.1Q717.2 92.1 716.3 91.6Q715.5 91.1 715.0 90.2Q714.5 89.3 714.5 88.0L714.5 88.0Q714.5 86.7 715.0 85.8Q715.5 84.9 716.3 84.4Q717.2 83.9 718.2 83.9L718.2 83.9Q718.9 83.9 719.5 84.1Q720.1 84.3 720.5 84.6Q721.0 85.0 721.3 85.5Q721.6 86.1 721.7 86.7L721.7 86.7L720.0 86.7Q720.0 86.4 719.8 86.1Q719.6 85.9 719.4 85.7Q719.2 85.5 718.9 85.4Q718.6 85.3 718.3 85.3L718.3 85.3Q717.6 85.3 717.2 85.7Q716.7 86.0 716.4 86.6Q716.2 87.2 716.2 88.0L716.2 88.0Q716.2 88.9 716.4 89.5Q716.7 90.1 717.2 90.4Q717.6 90.7 718.2 90.7L718.2 90.7Q718.6 90.7 718.9 90.6Q719.2 90.5 719.4 90.3Q719.6 90.1 719.8 89.8Q720.0 89.6 720.0 89.3L720.0 89.3L721.7 89.3Q721.6 89.8 721.3 90.3Q721.1 90.8 720.6 91.2Q720.2 91.6 719.6 91.9Q719.0 92.1 718.2 92.1ZM727.9 92.1L727.9 92.1Q726.8 92.1 726.0 91.6Q725.1 91.1 724.6 90.2Q724.1 89.3 724.1 88.0L724.1 88.0Q724.1 86.7 724.6 85.8Q725.1 84.9 726.0 84.4Q726.8 83.9 727.9 83.9L727.9 83.9Q728.9 83.9 729.8 84.4Q730.6 84.9 731.1 85.8Q731.6 86.7 731.6 88.0L731.6 88.0Q731.6 89.3 731.1 90.2Q730.6 91.1 729.8 91.6Q728.9 92.1 727.9 92.1ZM727.9 90.7L727.9 90.7Q728.5 90.7 729.0 90.3Q729.4 90.0 729.7 89.5Q729.9 88.9 729.9 88.0L729.9 88.0Q729.9 87.1 729.7 86.5Q729.4 86.0 729.0 85.6Q728.5 85.3 727.9 85.3L727.9 85.3Q727.3 85.3 726.8 85.7Q726.3 86.0 726.1 86.6Q725.8 87.1 725.8 88.0L725.8 88.0Q725.8 88.9 726.1 89.4Q726.3 90.0 726.8 90.3Q727.3 90.7 727.9 90.7ZM736.0 92L734.3 92L734.3 84.0L736.9 84.0L738.2 87.7Q738.2 87.9 738.3 88.3Q738.4 88.7 738.5 89.2L738.5 89.2Q738.7 89.7 738.7 90.1L738.7 90.1Q738.8 89.7 738.9 89.2L738.9 89.2Q739.0 88.8 739.2 88.3Q739.3 87.9 739.3 87.7L739.3 87.7L740.6 84.0L743.1 84.0L743.1 92L741.5 92L741.5 88.2Q741.5 88.0 741.5 87.6Q741.5 87.2 741.5 86.7Q741.5 86.3 741.5 85.8L741.5 85.8Q741.6 85.6 741.6 85.4L741.6 85.4Q741.5 85.6 741.4 85.9L741.4 85.9Q741.3 86.3 741.2 86.8Q741.1 87.2 740.9 87.6Q740.8 88.0 740.8 88.2L740.8 88.2L739.4 92L738.0 92L736.7 88.2Q736.6 88.0 736.5 87.6Q736.4 87.2 736.3 86.8Q736.1 86.4 736.0 85.9L736.0 85.9Q736.0 85.7 735.9 85.5L735.9 85.5Q735.9 85.6 735.9 85.8L735.9 85.8Q735.9 86.2 735.9 86.7Q735.9 87.2 736.0 87.6Q736.0 88.0 736.0 88.2L736.0 88.2L736.0 92ZM747.7 92L746.1 92L746.1 84.0L748.6 84.0L749.9 87.7Q750.0 87.9 750.1 88.3Q750.2 88.7 750.3 89.2L750.3 89.2Q750.4 89.7 750.5 90.1L750.5 90.1Q750.6 89.7 750.7 89.2L750.7 89.2Q750.8 88.8 750.9 88.3Q751.0 87.9 751.1 87.7L751.1 87.7L752.4 84.0L754.9 84.0L754.9 92L753.2 92L753.2 88.2Q753.2 88.0 753.2 87.6Q753.3 87.2 753.3 86.7Q753.3 86.3 753.3 85.8L753.3 85.8Q753.3 85.6 753.3 85.4L753.3 85.4Q753.2 85.6 753.2 85.9L753.2 85.9Q753.1 86.3 752.9 86.8Q752.8 87.2 752.7 87.6Q752.6 88.0 752.5 88.2L752.5 88.2L751.2 92L749.8 92L748.4 88.2Q748.4 88.0 748.3 87.6Q748.1 87.2 748.0 86.8Q747.9 86.4 747.8 85.9L747.8 85.9Q747.7 85.7 747.7 85.5L747.7 85.5Q747.7 85.6 747.7 85.8L747.7 85.8Q747.7 86.2 747.7 86.7Q747.7 87.2 747.7 87.6Q747.7 88.0 747.7 88.2L747.7 88.2L747.7 92ZM757.8 84.0L759.5 84.0L759.5 92L757.8 92L757.8 84.0ZM764.5 85.4L762.1 85.4L762.1 84.0L768.6 84.0L768.6 85.4L766.2 85.4L766.2 92L764.5 92L764.5 85.4ZM774.2 92.1L774.2 92.1Q773.2 92.1 772.5 91.8Q771.8 91.5 771.4 90.9Q771.0 90.4 771.0 89.5L771.0 89.5L772.6 89.5Q772.6 89.9 772.8 90.2Q773.0 90.5 773.4 90.6Q773.7 90.7 774.2 90.7L774.2 90.7Q774.6 90.7 774.9 90.6Q775.3 90.5 775.5 90.2Q775.6 90.0 775.6 89.7L775.6 89.7Q775.6 89.4 775.5 89.3Q775.3 89.1 775.0 88.9Q774.7 88.8 774.3 88.7L774.3 88.7L773.4 88.5Q772.4 88.2 771.8 87.7Q771.2 87.2 771.2 86.3L771.2 86.3Q771.2 85.6 771.6 85.0Q772.0 84.5 772.7 84.2Q773.3 83.9 774.2 83.9L774.2 83.9Q775.1 83.9 775.8 84.2Q776.4 84.5 776.8 85.0Q777.2 85.6 777.2 86.3L777.2 86.3L775.6 86.3Q775.6 85.8 775.2 85.5Q774.8 85.3 774.2 85.3L774.2 85.3Q773.8 85.3 773.5 85.4Q773.2 85.5 773.0 85.7Q772.9 85.9 772.9 86.2L772.9 86.2Q772.9 86.5 773.1 86.7Q773.2 86.9 773.5 87.0Q773.8 87.1 774.2 87.2L774.2 87.2L774.9 87.4Q775.4 87.5 775.8 87.7Q776.3 87.9 776.6 88.2Q776.9 88.4 777.1 88.8Q777.3 89.2 777.3 89.7L777.3 89.7Q777.3 90.4 776.9 91.0Q776.6 91.5 775.9 91.8Q775.2 92.1 774.2 92.1Z "/></g></svg>