<svg role="img" viewBox="0 0 48 48" xmlns="http://www.w3.org/2000/svg" id="Hackthebox--Streamline-Simple-Icons" height="48" width="48">
  <desc>
    Hackthebox Streamline Icon: https://streamlinehq.com
  </desc>
  <title>Hack The Box</title>
  <path d="m45.0212 12.9132 0.0016 -0.0246a1.776 1.776 0 0 0 -0.5434 -1.2768c-0.0168 -0.0168 -0.036 -0.031 -0.0534 -0.047 -0.0372 -0.0332 -0.0742 -0.0666 -0.1144 -0.0968 -0.0386 -0.0294 -0.08 -0.0552 -0.1214 -0.0812 -0.0192 -0.012 -0.0364 -0.0262 -0.0562 -0.0376L24.9152 0.2532a1.782 1.782 0 0 0 -1.8446 0.0086L3.866 11.3488c-0.0214 0.0124 -0.0406 0.028 -0.0614 0.041 -0.0146 0.0094 -0.03 0.016 -0.0446 0.0256 -0.014 0.0094 -0.026 0.0212 -0.04 0.031a1.7538 1.7538 0 0 0 -0.294 0.2666l-0.0052 0.006a1.7744 1.7744 0 0 0 -0.4436 1.1694l0.0018 0.028c-0.0004 0.0176 -0.003 0.0352 -0.003 0.0528v22.1416c0 0.6554 0.3604 1.2576 0.938 1.5672l19.1972 11.0834c0.0152 0.0088 0.0316 0.015 0.0472 0.0234a1.7508 1.7508 0 0 0 0.332 0.1374c0.0268 0.008 0.0532 0.0166 0.0802 0.0234a1.7586 1.7586 0 0 0 0.144 0.0284c0.0234 0.0038 0.0464 0.009 0.0698 0.012a1.67 1.67 0 0 0 0.4314 0c0.0234 -0.003 0.0464 -0.0082 0.0696 -0.012a1.8 1.8 0 0 0 0.144 -0.0284c0.027 -0.0068 0.0534 -0.0154 0.08 -0.0234a1.79 1.79 0 0 0 0.1292 -0.0434 1.8268 1.8268 0 0 0 0.203 -0.094c0.0156 -0.0084 0.032 -0.0144 0.0472 -0.0234l19.1972 -11.0834a1.7776 1.7776 0 0 0 0.938 -1.5672V12.9558c0 -0.0142 -0.0024 -0.0284 -0.0028 -0.0426zM10.5086 12.1644l13.0734 -7.548a0.8364 0.8364 0 0 1 0.8364 0l13.0732 7.548a0.8364 0.8364 0 0 1 0 1.4486l-13.0734 7.548a0.8364 0.8364 0 0 1 -0.8364 0l-13.0732 -7.548a0.8364 0.8364 0 0 1 0 -1.4486zm11.2268 28.6898a0.8344 0.8344 0 0 1 -1.252 0.7226L7.436 34.0436a0.8346 0.8346 0 0 1 -0.4172 -0.7226V18.2558a0.8344 0.8344 0 0 1 1.2516 -0.7226l13.048 7.5332a0.8344 0.8344 0 0 1 0.4172 0.7228v15.065zm19.246 -7.5332a0.8346 0.8346 0 0 1 -0.4172 0.7226l-13.0478 7.5332a0.8344 0.8344 0 0 1 -1.2518 -0.7226v-15.065c0 -0.298 0.1592 -0.5736 0.4174 -0.7228l13.0478 -7.5332a0.8344 0.8344 0 0 1 1.2516 0.7226v15.0652z" fill="#9fef00" stroke-width="2"></path>
</svg>