<svg role="img" viewBox="0 0 36 36" xmlns="http://www.w3.org/2000/svg" id="Hackthebox--Streamline-Simple-Icons" height="36" width="36" style="background-color: #0d1117">
  <desc>
    Hackthebox Streamline Icon: https://streamlinehq.com
  </desc>
  <title>Hack The Box</title>
  <path d="m33.7659 9.684899999999999 0.0012000000000000001 -0.01845a1.332 1.332 0 0 0 -0.40754999999999997 -0.9576c-0.0126 -0.0126 -0.026999999999999996 -0.02325 -0.04005 -0.035250000000000004 -0.027899999999999998 -0.0249 -0.055650000000000005 -0.04995000000000001 -0.0858 -0.0726 -0.028950000000000004 -0.02205 -0.06 -0.0414 -0.09104999999999999 -0.060899999999999996 -0.0144 -0.009000000000000001 -0.0273 -0.01965 -0.04215 -0.028200000000000003L18.6864 0.18989999999999999a1.3365 1.3365 0 0 0 -1.38345 0.00645L2.8995 8.511600000000001c-0.01605 0.0093 -0.030449999999999998 0.021 -0.04605 0.03075 -0.01095 0.007050000000000001 -0.0225 0.012 -0.03345 0.019200000000000002 -0.0105 0.007050000000000001 -0.0195 0.0159 -0.03 0.02325a1.31535 1.31535 0 0 0 -0.22049999999999997 0.19995000000000002l-0.0039 0.0045000000000000005a1.3308 1.3308 0 0 0 -0.3327 0.87705l0.00135 0.021c-0.00030000000000000003 0.0132 -0.0022500000000000003 0.0264 -0.0022500000000000003 0.039599999999999996v16.6062c0 0.49155 0.2703 0.9432 0.7035 1.1754l14.3979 8.31255c0.0114 0.0066 0.023700000000000002 0.01125 0.0354 0.01755a1.3131 1.3131 0 0 0 0.249 0.10305c0.0201 0.006 0.0399 0.01245 0.060149999999999995 0.01755a1.31895 1.31895 0 0 0 0.10799999999999998 0.0213c0.01755 0.00285 0.0348 0.006749999999999999 0.05235 0.009000000000000001a1.2525 1.2525 0 0 0 0.32355 0c0.01755 -0.0022500000000000003 0.0348 -0.006150000000000001 0.052199999999999996 -0.009000000000000001a1.35 1.35 0 0 0 0.10799999999999998 -0.0213c0.02025 -0.0050999999999999995 0.04005 -0.011550000000000001 0.06 -0.01755a1.3425 1.3425 0 0 0 0.09690000000000001 -0.03255 1.3700999999999999 1.3700999999999999 0 0 0 0.15225 -0.07050000000000001c0.011699999999999999 -0.0063 0.024 -0.0108 0.0354 -0.01755l14.3979 -8.31255a1.3332000000000002 1.3332000000000002 0 0 0 0.7035 -1.1754V9.71685c0 -0.01065 -0.0018 -0.0213 -0.0021 -0.03195zM7.881449999999999 9.1233l9.80505 -5.661a0.6273 0.6273 0 0 1 0.6273 0l9.8049 5.661a0.6273 0.6273 0 0 1 0 1.0864500000000001l-9.80505 5.661a0.6273 0.6273 0 0 1 -0.6273 0l-9.8049 -5.661a0.6273 0.6273 0 0 1 0 -1.0864500000000001zm8.420100000000001 21.51735a0.6258 0.6258 0 0 1 -0.9390000000000001 0.54195L5.577 25.5327a0.62595 0.62595 0 0 1 -0.3129 -0.54195V13.69185a0.6258 0.6258 0 0 1 0.9387000000000001 -0.54195l9.786 5.6499a0.6258 0.6258 0 0 1 0.3129 0.5421v11.29875zm14.4345 -5.6499a0.62595 0.62595 0 0 1 -0.3129 0.54195l-9.78585 5.6499a0.6258 0.6258 0 0 1 -0.93885 -0.54195v-11.29875c0 -0.22349999999999998 0.1194 -0.4302 0.31305 -0.5421l9.78585 -5.6499a0.6258 0.6258 0 0 1 0.9387000000000001 0.54195v11.2989z" fill="#9fef00" stroke-width="1.5"></path>
</svg>